<svg xmlns="http://www.w3.org/2000/svg" xmlns:xlink="http://www.w3.org/1999/xlink" width="1920" height="1080" viewBox="0 0 1920 1080">
  <defs>
    <clipPath id="clip-path">
      <rect id="Ret창ngulo_90" data-name="Ret창ngulo 90" width="1920" height="1080" fill="none"/>
    </clipPath>
    <linearGradient id="linear-gradient" x1="0.5" x2="0.5" y2="1" gradientUnits="objectBoundingBox">
      <stop offset="0" stop-color="#e6eaff"/>
      <stop offset="1" stop-color="#fff"/>
    </linearGradient>
  </defs>
  <g id="Background-1" clip-path="url(#clip-path)">
    <g id="Grupo_153" data-name="Grupo 153">
      <rect id="Ret창ngulo_89" data-name="Ret창ngulo 89" width="1920" height="1080" fill="url(#linear-gradient)"/>
      <g id="Logo" transform="translate(-514.031 370.52) rotate(-41)" opacity="0.02" style="isolation: isolate">
        <g id="g20" transform="translate(165.991 82.992)">
          <path id="path22" d="M304.308,0H110.657A110.657,110.657,0,0,0,0,110.657V304.308A110.654,110.654,0,0,0,110.657,414.965H304.308A110.654,110.654,0,0,0,414.965,304.308V110.657A110.657,110.657,0,0,0,304.308,0" transform="translate(0 0)" fill="#3754ff"/>
        </g>
        <g id="g24" transform="translate(0 0)">
          <path id="path26" d="M1475.4,548.543l-32.1-32.1a110.657,110.657,0,0,1-32.41-78.247V110.657A110.657,110.657,0,0,0,1300.237,0H857.6A110.654,110.654,0,0,0,746.947,110.657V438.2a110.663,110.663,0,0,1-32.415,78.247l-73.593,73.6a110.679,110.679,0,0,1-78.252,32.41H110.657A110.66,110.66,0,0,0,0,733.107V1051.25a110.661,110.661,0,0,0,110.657,110.662H553.3A110.662,110.662,0,0,0,663.953,1051.25V723.717a110.661,110.661,0,0,1,32.41-78.252l73.6-73.593a110.642,110.642,0,0,1,78.247-32.415h461.425a110.651,110.651,0,0,1,78.247,32.415l32.1,32.1a110.676,110.676,0,0,1,32.409,78.247V802.267A110.662,110.662,0,0,0,1563.048,912.93H1673.71a110.661,110.661,0,0,0,110.656-110.662V691.61A110.66,110.66,0,0,0,1673.71,580.953H1553.652a110.658,110.658,0,0,1-78.247-32.41" transform="translate(0 0)" fill="#3754ff"/>
        </g>
        <g id="g28" transform="translate(2116.341 1078.919)">
          <path id="path30" d="M110.657,414.965H304.308A110.657,110.657,0,0,0,414.965,304.308V110.657A110.654,110.654,0,0,0,304.308,0H110.657A110.654,110.654,0,0,0,0,110.657V304.308A110.657,110.657,0,0,0,110.657,414.965" transform="translate(0 0)" fill="#3754ff"/>
        </g>
        <g id="g32" transform="translate(912.929 414.965)">
          <path id="path34" d="M308.962,613.368l32.1,32.1a110.658,110.658,0,0,1,32.41,78.247v327.538A110.657,110.657,0,0,0,484.13,1161.912H926.764a110.654,110.654,0,0,0,110.657-110.657V723.717a110.663,110.663,0,0,1,32.415-78.247l73.593-73.6a110.679,110.679,0,0,1,78.253-32.41H1673.71A110.66,110.66,0,0,0,1784.367,428.8V110.662A110.661,110.661,0,0,0,1673.71,0H1231.072a110.662,110.662,0,0,0-110.657,110.662V438.2A110.669,110.669,0,0,1,1088,516.447l-73.6,73.593a110.641,110.641,0,0,1-78.247,32.415H474.734a110.651,110.651,0,0,1-78.247-32.415l-32.1-32.1a110.676,110.676,0,0,1-32.41-78.247V359.644A110.661,110.661,0,0,0,221.319,248.982H110.657A110.661,110.661,0,0,0,0,359.644V470.3A110.66,110.66,0,0,0,110.657,580.958H230.715a110.658,110.658,0,0,1,78.247,32.41" transform="translate(0 0)" fill="#3754ff"/>
        </g>
      </g>
    </g>
  </g>
</svg>
